<?xml version="1.0" standalone="no"?>
<!DOCTYPE svg PUBLIC "-//W3C//DTD SVG 20010904//EN"
 "http://www.w3.org/TR/2001/REC-SVG-20010904/DTD/svg10.dtd">
<svg version="1.0" xmlns="http://www.w3.org/2000/svg"
 width="400.000000pt" height="400.000000pt" viewBox="0 0 400.000000 400.000000"
 preserveAspectRatio="xMidYMid meet">
<metadata>
Created by potrace 1.14, written by Peter Selinger 2001-2017
</metadata>
<g transform="translate(0.000000,400.000000) scale(0.100000,-0.100000)"
fill="#000000" stroke="none">
<path d="M2330 3685 c-192 -38 -360 -152 -466 -315 -24 -38 -44 -71 -44 -73 0
-9 -89 -158 -138 -232 -72 -107 -177 -205 -268 -250 -74 -36 -173 -69 -239
-81 -16 -2 -37 -7 -45 -9 -8 -2 -35 -7 -60 -10 -25 -3 -52 -8 -60 -10 -8 -2
-46 -7 -83 -10 -406 -37 -699 -418 -624 -812 26 -138 114 -297 216 -391 48
-43 155 -109 221 -134 64 -25 90 -31 295 -63 416 -66 542 -159 771 -574 118
-213 252 -327 464 -392 98 -31 282 -33 375 -5 376 113 607 527 489 876 -48
142 -156 286 -279 370 -82 56 -207 104 -305 116 -30 4 -102 15 -245 40 -94 16
-211 57 -290 102 -67 39 -185 148 -185 172 0 23 107 124 174 164 80 48 224 95
344 111 20 3 48 8 62 11 13 3 40 7 60 10 141 17 216 36 294 75 245 122 402
367 400 624 -3 309 -219 592 -519 680 -75 22 -229 27 -315 10z m234 -372 c174
-60 270 -255 210 -424 -22 -61 -89 -139 -148 -174 -251 -147 -553 77 -491 365
19 90 104 185 198 224 71 29 161 33 231 9z m-1430 -1006 c112 -52 189 -167
193 -291 5 -189 -142 -340 -327 -338 -71 2 -90 6 -153 35 -66 31 -120 85 -154
156 -23 47 -27 69 -27 141 -1 74 3 92 27 139 46 88 130 154 227 179 57 15 156
5 214 -21z m1447 -1006 c69 -26 147 -98 180 -166 20 -42 24 -65 24 -140 0 -81
-3 -96 -30 -143 -39 -71 -88 -118 -155 -151 -74 -35 -210 -37 -282 -4 -60 27
-137 105 -168 169 -36 74 -34 189 4 265 84 169 252 236 427 170z"/>
</g>
</svg>
