<svg width="1195" height="374" viewBox="0 0 1195 374" fill="none" xmlns="http://www.w3.org/2000/svg">
<path d="M48.6173 373.501C36.461 373.501 28.3607 365.325 25.6603 351.702L1.35264 253.601C0.0020752 250.875 0.0020752 246.787 0.0020752 244.062C0.0020752 239.975 1.35264 235.888 5.4037 233.163C8.1044 230.438 12.1557 229.076 17.5575 229.076C27.0102 229.076 32.4124 233.163 33.7624 242.7L52.6652 332.626L76.9728 242.7C79.6739 233.163 86.4255 229.076 95.8756 229.076C106.679 229.076 113.431 233.163 114.778 242.7L140.437 332.626L158.002 245.424C160.703 234.524 166.104 229.076 175.557 229.076C180.959 229.076 185.011 230.438 187.713 233.163C190.414 235.888 193.115 239.975 193.115 244.062C193.115 246.787 191.764 250.875 191.764 253.6L164.756 351.701C163.406 359.876 160.705 363.963 158.004 368.049C152.871 371.665 146.728 373.572 140.449 373.5C129.645 373.5 121.546 366.686 117.492 355.786L95.882 274.038L74.2768 353.063C70.2238 366.688 62.1204 373.501 48.6173 373.501ZM303.847 229.076C316.004 229.076 324.104 234.526 328.155 246.788L367.317 348.976C368.667 353.064 370.018 355.789 370.018 358.515C370.018 362.602 367.317 366.689 364.616 369.414C360.565 372.139 356.513 373.502 352.46 373.502C344.357 373.502 337.605 368.052 333.557 358.515L328.156 340.801H275.488L268.736 358.515C266.035 368.051 260.633 373.502 252.531 373.502C247.129 373.502 243.077 372.139 240.375 369.414C237.674 366.689 236.324 362.602 236.324 358.515C236.324 354.428 236.324 351.702 237.674 348.976L276.836 249.513C282.24 235.888 291.691 229.076 303.847 229.076ZM302.497 263.138L284.941 313.551H318.701L302.496 263.138H302.497ZM429.436 252.238C429.436 237.251 434.838 229.076 446.992 229.076C457.795 229.076 463.197 237.251 463.197 252.238V342.163H492.906C509.111 342.163 517.214 346.251 517.214 357.151C517.214 366.689 509.111 370.776 492.906 370.776H452.393C444.29 370.776 437.538 369.413 434.837 366.688C430.786 363.963 429.436 358.514 429.436 351.701L429.436 252.238ZM609.045 350.338C609.045 365.325 603.643 373.501 591.49 373.501C580.686 373.501 575.285 365.325 575.285 350.338V252.238C575.285 237.251 580.686 229.076 591.49 229.076C603.646 229.076 609.045 237.251 609.045 252.238V350.338ZM676.566 301.288C676.566 280.851 683.318 263.138 695.469 249.512C708.973 235.888 726.528 229.076 748.135 229.076C771.092 229.076 788.647 235.888 802.152 249.513C815.656 263.137 821.057 279.489 821.057 301.289C821.057 321.726 815.656 339.439 802.152 353.064C788.647 366.689 771.092 373.502 748.135 373.502C726.528 373.502 708.973 366.689 695.468 353.064C683.315 339.441 676.563 321.726 676.563 301.288H676.566ZM713.027 301.288C713.027 313.551 715.728 323.089 721.13 329.901C727.882 339.438 737.335 343.525 748.138 343.525C760.294 343.525 769.744 339.438 776.497 329.901C781.898 323.088 784.599 313.55 784.599 301.288C784.599 289.026 781.898 279.488 776.497 272.675C769.744 263.138 760.291 259.05 748.138 259.05C735.985 259.05 727.882 263.138 721.13 272.675C715.727 279.488 713.026 289.026 713.026 301.288H713.027ZM907.488 260.412C895.332 260.412 887.231 260.412 884.531 259.05C875.078 257.688 869.677 253.6 869.677 245.424C869.677 235.888 877.779 230.437 893.984 230.437H954.753C970.958 230.437 979.06 235.888 979.06 245.424C979.06 253.6 973.659 257.688 965.556 259.05C961.505 260.412 954.753 260.412 941.248 260.412V350.338C941.248 365.325 935.847 373.501 925.043 373.501C912.887 373.501 907.488 365.325 907.488 350.338V260.412Z" fill="#082679"/>
<path fill-rule="evenodd" clip-rule="evenodd" d="M937.254 126.349C937.248 121.725 938.615 117.203 941.182 113.355C943.749 109.508 947.401 106.508 951.675 104.736C955.948 102.964 960.652 102.499 965.19 103.401C969.728 104.302 973.897 106.529 977.168 109.799C980.439 113.07 982.666 117.237 983.566 121.773C984.466 126.309 983.999 131.01 982.225 135.281C980.45 139.551 977.448 143.2 973.597 145.764C969.747 148.328 965.222 149.693 960.595 149.685H937.254V126.349ZM1003.48 126.554C1003.42 115.187 998.883 104.3 990.84 96.2621C982.797 88.2245 971.904 83.6868 960.53 83.6364C953.528 83.6386 946.634 85.3734 940.465 88.6858C942.706 83.538 945.902 78.8612 949.885 74.9032C956.049 68.7683 963.893 64.5942 972.427 62.9069C980.961 61.2197 989.804 62.0949 997.841 65.4221C1005.88 68.7493 1012.75 74.3798 1017.59 81.6039C1022.43 88.8281 1025.03 97.3227 1025.04 106.017V150.025L996.5 149.889C1001.05 142.956 1003.48 134.845 1003.48 126.554V126.554ZM1044.16 150.027V106.016C1044.19 94.4006 1041 83.0047 1034.95 73.0851C1028.9 63.1656 1020.23 55.1078 1009.9 49.8006C999.559 44.4934 987.956 42.1429 976.366 43.0084C964.777 43.8738 953.652 47.9217 944.218 54.7054C947.351 48.7193 951.377 43.2437 956.156 38.4661C965.309 29.3519 976.957 23.1496 989.631 20.6411C1002.31 18.1326 1015.44 19.4301 1027.38 24.3701C1039.31 29.31 1049.52 37.6713 1056.71 48.4002C1063.9 59.129 1067.76 71.7452 1067.78 84.6586L1067.85 161.078C1067.86 163.862 1068.04 166.642 1068.39 169.403C1070.45 184.563 1077.94 198.464 1089.46 208.537C1100.98 218.609 1115.76 224.171 1131.07 224.194C1144.25 224.207 1157.09 220.077 1167.79 212.39C1164.67 218.363 1160.67 223.837 1155.92 228.629C1146.77 237.75 1135.11 243.958 1122.43 246.471C1109.75 248.983 1096.61 247.688 1084.67 242.748C1072.72 237.808 1062.51 229.444 1055.32 218.711C1048.12 207.978 1044.26 195.356 1044.23 182.436L1044.16 150.027ZM1087.04 117.07L1115.57 117.138C1110.35 125.09 1107.92 134.556 1108.67 144.042C1109.42 153.527 1113.32 162.492 1119.74 169.518C1126.16 176.545 1134.74 181.234 1144.12 182.845C1153.5 184.455 1163.16 182.895 1171.55 178.411C1169.31 183.538 1166.14 188.209 1162.2 192.194C1156.05 198.347 1148.2 202.537 1139.66 204.234C1131.12 205.931 1122.27 205.06 1114.22 201.73C1106.18 198.4 1099.3 192.76 1094.46 185.525C1089.62 178.289 1087.04 169.783 1087.04 161.08L1087.04 117.07ZM1086.9 97.8961V84.6586C1086.81 62.3027 1077.86 40.892 1062.02 25.1145C1046.17 9.33706 1024.71 0.478516 1002.34 0.478516C979.976 0.478516 958.519 9.33706 942.672 25.1145C926.824 40.892 917.878 62.3027 917.791 84.6586V152.55C917.791 165.583 925.162 169.198 935.885 169.198H1025.12V182.435C1025.2 204.791 1034.15 226.201 1050 241.979C1065.85 257.756 1087.3 266.615 1109.67 266.615C1132.04 266.615 1153.5 257.756 1169.34 241.979C1185.19 226.201 1194.14 204.791 1194.22 182.435V140.815L1194.28 140.678V115.091C1194.28 106.903 1189.51 97.8961 1176.4 97.8961H1086.9ZM1151.42 164.15C1145.21 164.15 1139.27 161.687 1134.88 157.305C1130.5 152.922 1128.03 146.978 1128.03 140.78C1128.03 134.582 1130.5 128.638 1134.88 124.255C1139.27 119.873 1145.21 117.411 1151.42 117.411H1174.76V140.746C1174.77 146.943 1172.31 152.889 1167.94 157.277C1163.56 161.666 1157.62 164.138 1151.42 164.15V164.15Z" fill="#082679"/>
</svg>
